<svg xmlns="http://www.w3.org/2000/svg" width="12" height="12.001" viewBox="0 0 12 12.001">
  <path id="globe_network-_1294_" data-name="globe_network-[#1294]" d="M331.387,2249.6a9.031,9.031,0,0,0,1.317-4h2.054a4.808,4.808,0,0,1-3.371,4m-1.384-.094a7.835,7.835,0,0,1-1.505-3.9H331.5a7.833,7.833,0,0,1-1.5,3.9m-4.761-3.9H327.3a9.054,9.054,0,0,0,1.324,4,4.814,4.814,0,0,1-3.378-4m3.132-5.115a9.045,9.045,0,0,0-1.093,3.912h-2.039a4.808,4.808,0,0,1,3.132-3.912m1.607-.29a.205.205,0,0,1,.016-.022.209.209,0,0,1,.016.022,7.843,7.843,0,0,1,1.507,4.2H328.48a7.841,7.841,0,0,1,1.5-4.2m4.778,4.2h-2.039a9.053,9.053,0,0,0-1.1-3.916,4.811,4.811,0,0,1,3.139,3.916m-4.245-5.378A6,6,0,1,0,336,2245a6,6,0,0,0-5.487-5.98" transform="translate(-324 -2239.001)" fill-rule="evenodd"/>
</svg>
